<svg width="38" height="38" viewBox="0 0 38 38" fill="none" xmlns="http://www.w3.org/2000/svg">
<path fill-rule="evenodd" clip-rule="evenodd" d="M22.6667 37.3335H14.8933C11.0035 37.3335 7.27298 35.7883 4.52244 33.0377C1.77191 30.2872 0.226677 26.5567 0.226677 22.6668V14.8935C0.226677 6.79332 6.79317 0.22683 14.8933 0.22683H22.6667C30.7669 0.22683 37.3333 6.79332 37.3333 14.8935V22.6668C37.3333 30.767 30.7669 37.3335 22.6667 37.3335ZM10.8497 18.8645C9.58917 20.1113 8.87989 21.8106 8.88 23.5835V25.7102C8.88 26.2014 9.14207 26.6553 9.5675 26.9009C9.99293 27.1466 10.5171 27.1466 10.9425 26.9009C11.3679 26.6553 11.63 26.2014 11.63 25.7102V23.5835C11.6046 22.5257 12.0137 21.5036 12.7619 20.7554C13.5101 20.0072 14.5322 19.5981 15.59 19.6235L23.9867 19.6235L19.935 23.6752C19.4302 24.2169 19.4451 25.0612 19.9687 25.5848C20.4923 26.1084 21.3366 26.1233 21.8783 25.6185L28.2767 19.2202C28.401 19.093 28.5004 18.9438 28.57 18.7802C28.7169 18.4409 28.7169 18.0561 28.57 17.7168C28.5004 17.5532 28.401 17.404 28.2767 17.2768L21.8783 10.9518C21.6185 10.6972 21.2704 10.5527 20.9067 10.5485C20.5437 10.5564 20.1969 10.7003 19.935 10.9518C19.3988 11.4887 19.3988 12.3583 19.935 12.8952L23.9867 16.9468L15.59 16.9468C13.8172 16.9272 12.1102 17.6178 10.8497 18.8645Z" fill="#DAD1FB"/>
</svg>
